<svg xmlns="http://www.w3.org/2000/svg" viewBox="0 0 1600 420" width="1600" height="420" preserveAspectRatio="xMidYMid meet" role="img" aria-label="Cute kitten in five poses: sitting, lying, curled up, waving, standing">
  <title>Cute kitten in five simple SVG poses</title>
  <desc>One-sheet inline SVG with five simplified kitten poses for web pages.</desc>

  <defs>
    <g id="cat-face">
      <circle cx="104" cy="108" r="12" fill="#111"/>
      <circle cx="100" cy="103" r="4" fill="#fff"/>
      <circle cx="156" cy="108" r="12" fill="#111"/>
      <circle cx="152" cy="103" r="4" fill="#fff"/>
      <path d="M124 126 Q130 130 136 126" fill="none" stroke="#111" stroke-width="5" stroke-linecap="round" stroke-linejoin="round"/>
      <path d="M112 133 Q120 146 130 136 Q140 146 148 133" fill="none" stroke="#111" stroke-width="5" stroke-linecap="round" stroke-linejoin="round"/>
      <path d="M74 122 L48 118 M74 132 L44 134 M184 122 L210 118 M184 132 L214 134" fill="none" stroke="#111" stroke-width="5" stroke-linecap="round" stroke-linejoin="round"/>
    </g>
  </defs>

  <!-- 1. Sitting -->
  <g transform="translate(30 16)" stroke="#111" stroke-width="6" stroke-linecap="round" stroke-linejoin="round">
    <circle cx="130" cy="112" r="72" fill="#fff"/>
    <path d="M75 58 L52 27 L88 42 Z" fill="#fff"/>
    <path d="M185 58 L208 27 L172 42 Z" fill="#fff"/>
    <ellipse cx="130" cy="244" rx="72" ry="70" fill="#fff"/>
    <ellipse cx="98" cy="282" rx="17" ry="23" fill="#fff"/>
    <ellipse cx="126" cy="284" rx="16" ry="22" fill="#fff"/>
    <ellipse cx="152" cy="284" rx="16" ry="22" fill="#fff"/>
    <path d="M193 262 C240 276 258 246 254 214 C250 186 220 182 210 202" fill="none"/>
    <use href="#cat-face"/>
    <text x="130" y="362" text-anchor="middle" font-size="18" font-weight="600" font-family="system-ui, -apple-system, Segoe UI, Roboto, sans-serif" fill="#333" stroke="none">Сидя</text>
  </g>

  <!-- 2. Lying -->
  <g transform="translate(338 26)" stroke="#111" stroke-width="6" stroke-linecap="round" stroke-linejoin="round">
    <ellipse cx="140" cy="246" rx="102" ry="48" fill="#fff"/>
    <circle cx="92" cy="166" r="58" fill="#fff"/>
    <path d="M52 124 L32 94 L65 106 Z" fill="#fff"/>
    <path d="M130 124 L150 94 L117 106 Z" fill="#fff"/>
    <ellipse cx="182" cy="246" rx="22" ry="16" fill="#fff"/>
    <path d="M240 246 C286 248 304 216 292 192 C278 166 246 174 238 198" fill="none"/>

    <circle cx="74" cy="164" r="10" fill="#111" stroke="none"/>
    <circle cx="70" cy="160" r="3" fill="#fff" stroke="none"/>
    <circle cx="112" cy="164" r="10" fill="#111" stroke="none"/>
    <circle cx="108" cy="160" r="3" fill="#fff" stroke="none"/>
    <path d="M86 180 Q92 184 98 180" fill="none" stroke="#111" stroke-width="5"/>
    <path d="M78 187 Q85 198 92 190 Q99 198 106 187" fill="none" stroke="#111" stroke-width="5"/>
    <path d="M46 175 L22 174 M136 175 L160 174" fill="none" stroke="#111" stroke-width="5"/>

    <text x="140" y="352" text-anchor="middle" font-size="18" font-weight="600" font-family="system-ui, -apple-system, Segoe UI, Roboto, sans-serif" fill="#333" stroke="none">Лежа</text>
  </g>

  <!-- 3. Curled up -->
  <g transform="translate(650 18)" stroke="#111" stroke-width="6" stroke-linecap="round" stroke-linejoin="round">
    <circle cx="140" cy="210" r="98" fill="#fff"/>
    <circle cx="122" cy="170" r="52" fill="#fff"/>
    <path d="M90 130 L74 102 L102 112 Z" fill="#fff"/>
    <path d="M154 130 L170 102 L142 112 Z" fill="#fff"/>
    <path d="M172 218 C218 212 234 172 206 144 C182 120 154 130 146 148" fill="none"/>

    <circle cx="106" cy="168" r="8" fill="#111" stroke="none"/>
    <circle cx="103" cy="165" r="3" fill="#fff" stroke="none"/>
    <circle cx="136" cy="168" r="8" fill="#111" stroke="none"/>
    <circle cx="133" cy="165" r="3" fill="#fff" stroke="none"/>
    <path d="M116 180 Q122 184 128 180" fill="none" stroke="#111" stroke-width="5"/>
    <path d="M110 186 Q116 195 122 188 Q128 195 134 186" fill="none" stroke="#111" stroke-width="5"/>
    <path d="M84 176 L62 174 M160 176 L182 174" fill="none" stroke="#111" stroke-width="5"/>

    <text x="140" y="360" text-anchor="middle" font-size="18" font-weight="600" font-family="system-ui, -apple-system, Segoe UI, Roboto, sans-serif" fill="#333" stroke="none">Клубочком</text>
  </g>

  <!-- 4. Waving paw -->
  <g transform="translate(960 16)" stroke="#111" stroke-width="6" stroke-linecap="round" stroke-linejoin="round">
    <circle cx="130" cy="112" r="72" fill="#fff"/>
    <path d="M75 58 L52 27 L88 42 Z" fill="#fff"/>
    <path d="M185 58 L208 27 L172 42 Z" fill="#fff"/>
    <ellipse cx="130" cy="244" rx="72" ry="72" fill="#fff"/>
    <ellipse cx="96" cy="286" rx="18" ry="22" fill="#fff"/>
    <ellipse cx="152" cy="286" rx="18" ry="22" fill="#fff"/>
    <ellipse cx="196" cy="210" rx="18" ry="44" transform="rotate(-28 196 210)" fill="#fff"/>
    <path d="M226 142 L242 128 M232 158 L250 148 M236 176 L254 170" fill="none" stroke="#111" stroke-width="5"/>
    <path d="M198 258 C244 270 262 240 258 208 C254 180 225 176 214 196" fill="none"/>
    <use href="#cat-face"/>
    <text x="130" y="362" text-anchor="middle" font-size="18" font-weight="600" font-family="system-ui, -apple-system, Segoe UI, Roboto, sans-serif" fill="#333" stroke="none">Машет лапкой</text>
  </g>

  <!-- 5. Standing -->
  <g transform="translate(1268 14)" stroke="#111" stroke-width="6" stroke-linecap="round" stroke-linejoin="round">
    <circle cx="130" cy="112" r="72" fill="#fff"/>
    <path d="M75 58 L52 27 L88 42 Z" fill="#fff"/>
    <path d="M185 58 L208 27 L172 42 Z" fill="#fff"/>
    <ellipse cx="130" cy="238" rx="60" ry="86" fill="#fff"/>
    <ellipse cx="104" cy="298" rx="16" ry="26" fill="#fff"/>
    <ellipse cx="156" cy="298" rx="16" ry="26" fill="#fff"/>
    <path d="M188 244 C232 250 252 222 246 190 C240 164 216 162 206 180" fill="none"/>
    <path d="M118 206 Q122 228 130 244 Q138 228 142 206" fill="none" stroke="#111" stroke-width="5"/>
    <use href="#cat-face"/>
    <text x="130" y="362" text-anchor="middle" font-size="18" font-weight="600" font-family="system-ui, -apple-system, Segoe UI, Roboto, sans-serif" fill="#333" stroke="none">Стоит</text>
  </g>
</svg>
