<svg xmlns="http://www.w3.org/2000/svg" viewBox="0 0 1120 1536" width="1120" height="1536" role="img" aria-label="Милый котенок сидя">
  <title>Котенок сидя (inline SVG)</title>
  <desc>Чистый инлайн SVG котенка в сидячей позе, повторяющий референсный стиль.</desc>

  <g fill="none" stroke="#000" stroke-width="10" stroke-linecap="round" stroke-linejoin="round">
    <!-- head + ears + neck silhouette -->
    <path d="M302 575
             C274 476 289 364 332 338
             C372 314 460 358 545 441
             C633 430 717 451 776 497
             C839 454 920 430 968 443
             C1013 456 1002 548 976 607
             C957 650 930 686 896 718
             C896 745 895 768 900 792
             C876 828 847 848 810 861
             C845 911 886 954 931 1012
             C996 1096 1014 1218 983 1287
             C961 1335 920 1367 858 1382
             C758 1407 657 1403 589 1368
             C571 1402 525 1406 468 1396
             C420 1388 393 1362 393 1316
             C393 1267 408 1221 421 1170
             C386 1125 360 1078 349 1030
             C330 952 323 894 332 839
             C290 812 258 780 239 737
             C227 709 228 672 235 644
             C248 617 266 593 302 575 Z" fill="#fff"/>

    <!-- ears inner details -->
    <path d="M395 477 C425 505 445 531 456 553"/>
    <path d="M840 618 C872 596 902 582 930 573"/>

    <!-- whiskers -->
    <path d="M237 717 L142 704"/>
    <path d="M232 756 L138 768"/>
    <path d="M846 827 L949 840"/>
    <path d="M834 862 L923 908"/>

    <!-- paws and body details -->
    <path d="M516 1136 C526 1184 542 1217 572 1249"/>
    <path d="M676 1193 C647 1232 634 1279 633 1328"/>
    <path d="M392 1286 C359 1318 347 1376 376 1400"/>

    <!-- toes -->
    <path d="M395 1358 C390 1370 390 1385 394 1396"/>
    <path d="M420 1368 C414 1378 413 1391 417 1401"/>
    <path d="M446 1369 C442 1380 442 1392 446 1402"/>
    <path d="M535 1369 C531 1381 531 1394 536 1405"/>
    <path d="M567 1370 C563 1383 564 1396 569 1406"/>
    <path d="M730 1358 C724 1372 724 1387 729 1401"/>

    <!-- tail -->
    <path d="M842 1377
             C904 1422 978 1419 1030 1369
             C1068 1333 1085 1280 1077 1233
             C1068 1181 1028 1142 987 1149
             C946 1156 938 1196 945 1232
             C952 1267 949 1301 928 1327
             C905 1355 879 1367 846 1364"/>
  </g>

  <!-- face -->
  <g>
    <circle cx="454" cy="712" r="31" fill="#000"/>
    <circle cx="447" cy="701" r="7" fill="#fff"/>
    <circle cx="661" cy="748" r="31" fill="#000"/>
    <circle cx="653" cy="737" r="7" fill="#fff"/>

    <path d="M545 771 C556 789 582 793 594 775"
          fill="none" stroke="#000" stroke-width="10" stroke-linecap="round"/>
    <path d="M533 792
             C534 818 562 826 579 807
             C596 827 627 821 630 794"
          fill="none" stroke="#000" stroke-width="10" stroke-linecap="round" stroke-linejoin="round"/>
  </g>
</svg>
